<svg xmlns="http://www.w3.org/2000/svg" fill="#000" x="0" y="0" viewBox="0 0 172 172"><g fill="none" fill-rule="nonzero" stroke="none" stroke-dashoffset="0" stroke-linecap="butt" stroke-linejoin="none" stroke-miterlimit="10" stroke-width="none" font-family="none" font-size="none" font-weight="none" style="mix-blend-mode:normal" text-anchor="none"><path d="M99.5 25v99a130 130 0 0 1-27 2.6c-15.8 0-39.4-3.9-39.4-33.8 0-25 17.4-33.9 36.2-33.9 2.5 0 7.6.1 10 1V25zm34 0v20.4H113V25zm0 34v58.8c0 6.8-1.7 29.1-21.4 35.9l-19.3-8.8c14-6.1 20.3-16.8 20.3-27v-59zM54.7 92.7c0 14.3 8.6 17.1 17.5 17.1 2.1 0 4.6-.4 7-1V77.2c-2.4-.5-4.9-1-7-1-9 0-17.5 2.3-17.5 16.7z" fill="#000" stroke="#fff" stroke-linejoin="round" stroke-width="9.4"/><path d="M4.7 167.3V4.7h162.6v162.6z" fill="none"/><path d="M79.2 25v35c-2.3-1-7.4-1-9.9-1-18.8 0-36.2 8.8-36.2 33.8 0 30 23.6 33.8 39.4 33.8 6.2 0 20.3-.6 27-2.5V25zm33.9 0v20.4h20.3V25zm0 34v58.8c0 10.3-6.3 21-20.3 27.1l19.3 8.8c19.7-6.8 21.3-29 21.3-35.9V59zM72.3 76.1c2.1 0 4.6.4 7 1V109c-2.4.5-4.9 1-7 1-9 0-17.5-2.9-17.5-17.2 0-14.4 8.6-16.6 17.5-16.6z" fill="#000"/></g></svg>