<svg xmlns="http://www.w3.org/2000/svg" fill="#092e20" overflow="visible" viewBox="0 0 120 60"><path d="M17.8 10.7h6v28c-3 .5-5.3.8-7.8.8-7.3 0-11.2-3.4-11.2-9.7 0-6.2 4.1-10.2 10.4-10.2 1 0 1.7 0 2.6.3zm0 14a6 6 0 0 0-2-.2c-3 0-4.8 1.9-4.8 5.1 0 3.3 1.7 5 4.8 5a14.3 14.3 0 0 0 2-.1zM33.5 20v14c0 4.9-.4 7.2-1.4 9.2-1 1.9-2.3 3-5 4.4L21.5 45c2.7-1.3 4-2.4 4.8-4 .9-1.8 1.2-3.8 1.2-9V20zm-6-9.2h6V17h-6zM37 21.4a19 19 0 0 1 8-1.8c3.1 0 5.1.8 6 2.4.5 1 .7 2.1.7 4.6V39a65 65 0 0 1-8.6.7c-5 0-7.3-1.8-7.3-5.7 0-4.2 3-6.2 10.4-6.8v-1.4c0-1-.6-1.5-2-1.5-2.3 0-4.8.7-7.2 1.9v-4.7zm9.5 9.6c-4 .4-5.3 1-5.3 2.6 0 1.2.7 1.7 2.4 1.7.9 0 1.7 0 2.9-.2zm8.2-10c3.5-1 6.5-1.4 9.4-1.4 3.1 0 5.4.7 6.7 2 1.3 1.4 1.6 2.8 1.6 5.8v11.8h-6V27.6c0-2.3-.8-3.1-3-3.1-.7 0-1.5 0-2.7.4v14.3h-6zm20 21.5c2.2 1.1 4.3 1.6 6.6 1.6 4 0 5.6-1.6 5.6-5.4v-.1c-1.2.6-2.4.8-4 .8-5.2 0-8.6-3.5-8.6-9 0-6.9 5-10.7 13.8-10.7 2.6 0 5 .2 7.9.8L94 25l-1.4-.2v6.5l.2 2.4v1.7c0 5.2-.5 7.6-1.8 9.6-1.8 3-5 4.4-9.7 4.4-2.4 0-4.4-.4-6.5-1.2v-5.6zm12-18h-.5c-1.2 0-2.6.3-3.5.9-1.5.8-2.2 2.3-2.2 4.4 0 3 1.5 4.7 4.1 4.7.9 0 1.5-.1 2.3-.3V27l-.1-2v-.5zm18.6-5c6 0 9.8 3.8 9.8 10 0 6.3-3.9 10.3-10 10.3-6 0-9.7-3.8-9.7-10 0-6.3 3.8-10.3 10-10.3zm0 15.4c2.2 0 3.6-2 3.6-5.3s-1.3-5.2-3.6-5.2c-2.4 0-3.8 2-3.8 5.2s1.4 5.3 3.7 5.3z"/></svg>