<svg xmlns="http://www.w3.org/2000/svg" viewBox="0 0 32 32"><path d="M30 27.7H2c-1 0-2-.8-2-2V6.4a2 2 0 0 1 2-2h28c1 0 2 .9 2 2v19.3c0 1.2-1 2-2 2z" fill="#f2f2f2"/><path d="M4 27.7 16 19v-.6L3.7 9.6v17.7z" fill="#221f1f" opacity=".1"/><g fill="#d44c3d"><path d="M2 27.7a2 2 0 0 1-2-2V6.3C0 5.3.9 5 2 5s2 .3 2 1.3v21.4z"/><path d="M2 5.3c1.4 0 1.7.5 1.7 1v21.1H2c-1 0-1.7-.7-1.7-1.7V6.3c0-.6.3-1 1.7-1zm0-.2C1 5 0 5.3 0 6.4v19.3a2 2 0 0 0 2 2h2V6.3c0-1-.9-1.2-2-1.2zm28 .2c1.3 0 1.7.3 1.7 1v19.5c0 .9-.8 1.7-1.7 1.7h-1.7V6.3c0-.7.4-1 1.7-1zm0-.2c-1.1 0-2 .1-2 1.2v21.4h2a2 2 0 0 0 2-2V6.3C32 5.2 31 5 30 5z"/><path d="M30 27.7h-2V6.3c0-1.1.9-1.2 2-1.2s2 .1 2 1.2v19.5a2 2 0 0 1-2 2z"/></g><path d="M21.4 27.7.2 7.2l1 .5 14.9 10.6L32 6.6v19.2a2 2 0 0 1-2 2z" fill="#221f1f" opacity=".1"/><g fill="#d44c3d"><path d="M16 19 .9 8c-1-.6-1.2-2-.5-2.8s2-1 2.8-.4L16 14l12.8-9.4a2 2 0 0 1 2.8.4 2 2 0 0 1-.4 2.8z"/><path d="M30 4.6c.5 0 1 .2 1.4.7.5.7.4 1.8-.4 2.4l-15 11-15-11C.3 7.2 0 6.1.6 5.4c.3-.5.8-.7 1.4-.7.4 0 .8 0 1 .3l12.8 9.2.1.1h.2L29 4.7l1-.2zm0-.3c-.4 0-.9 0-1.2.3L16 14.1 3.2 4.8A2 2 0 0 0 2 4.3c-.6 0-1.3.3-1.6.8A2 2 0 0 0 .9 8l15 11L31.3 7.9a2 2 0 0 0 .4-2.8 2 2 0 0 0-1.6-.8z"/></g></svg>