<svg xmlns="http://www.w3.org/2000/svg" viewBox="0 0 48 48"><path d="m46.1 38.9-.9-2.4a11 11 0 0 0-3.6-3.5c-1.4-.9-3-1.6-4.4-2.2L32.4 29c-4.5-1.6-7-4-7-6.5-.1-1.2 1-5.2 6-4.2 1.2.2 2.3.5 3.4 1 1 .5 4 1.9 5 4 0 .8.4 1.2 1.6 1.8 1 .4 2 .9 2 2l.2.1c.3-.5 1-1 1.5-.9h.2V26l-1-.9a5.4 5.4 0 0 1-1-1.6l-.2-.3a15.2 15.2 0 0 0-5.9-7.2c-.9-.5-1.8-1-2.8-1.3l-.1.3a14 14 0 0 1 5 3.4c.9 1 1.7 2.2 2.2 3.5l-2-2.5v.9L38 18.5l.1.9-1.5-1.3v.6c-.3-.2-3.4-1.5-5-2s-4.7-3.6-3.8-7.3l-2.6-1a78 78 0 0 0-9.4-2.9A126.8 126.8 0 0 0 2.7 3v.3a64 64 0 0 1 12.7 3.2 141.9 141.9 0 0 1 9.2 3.3l.6.3A56.9 56.9 0 0 0 15 9a80.8 80.8 0 0 0-13.2.6v.3a50 50 0 0 1 13.1.3A80.8 80.8 0 0 1 25.2 12c-1-.1-2-.2-3-.1A38.3 38.3 0 0 0 5.3 16l.1.2a44.3 44.3 0 0 1 16.7-2.7c1.7 0 3.4.3 4.9.8 0 .5.3 1.4.5 1.8-4.3 2-4.8 5.5-4.5 7.4.5 2.2 2 3.9 4 5 1.5.9 3.1 1.5 4.7 2 1.5.6 3 1.2 4.4 2 1.4.7 2.5 1.9 3.4 3.2 1.9 2.6 2.6 6 2.8 9.2h.4a19 19 0 0 0-2.3-9.8c-.5-1-1.3-2-2.1-2.7 1 .3 2 .8 2.9 1.3 1.3.8 2.6 1.7 3.5 3 .4.7.8 1.4 1 2.2.2.7.3 1.5.3 2.3h.3c0-.8 0-1.6-.2-2.4z" fill="#78909c"/></svg>