<svg xmlns="http://www.w3.org/2000/svg" viewBox="0 0 25.6 25.6"><path d="M23.6 20a8 8 0 0 0-3.4.4c-.3.1-.7.1-.7.5l.3.5c.2.4.5.8.9 1l1 .9 2.2 1 1.1.8.6.5-.3-.6-.5-.5a8.2 8.2 0 0 0-1.8-1.8c-.6-.3-1.8-.9-2-1.5l1.2-.3c.5-.2 1-.1 1.7-.3l.8-.2v-.2l-.8-1-3-2.1c-.5-.4-1.1-.6-1.7-.9l-.7-.3-.7-1.4-1.4-3-1-2a16.5 16.5 0 0 0-6.7-6.4c-.6-.4-1.4-.5-2.2-.7H5.2l-.8-.7C3.4 1 .8-.3 0 1.5c-.5 1.1.7 2.2 1.1 2.8L2 5.6l.3 1c.3.7.5 1.5.9 2.2l.6 1.1c.2.2.4.3.5.6-.3.4-.3.9-.4 1.3-.7 2-.4 4.4.5 5.8.2.5.9 1.4 1.8 1 .8-.3.6-1.3.8-2.1l.1-.5.8 1.5a10 10 0 0 0 2.2 2.3c.4.3.8.8 1.3 1l-.4-.4-1-1-1.9-3.2-.7-1.6c-.1-.2-.1-.5-.3-.6l-.8 1C6 16 6 16.8 6 17.7h-.1c-.6 0-.8-.6-1-1.1a7.4 7.4 0 0 1-.1-4.6c0-.4.6-1.5.4-1.9 0-.3-.4-.5-.6-.8a7 7 0 0 1-.7-1l-1-3-1-1.4c-.2-.5-.6-.8-.9-1.4 0-.2-.2-.5 0-.7 0-.1 0-.2.2-.2.2-.2.9 0 1 .2a9 9 0 0 1 1.8.8c.3.2.5.5.8.6h.4c.6.1 1.2 0 1.7.2a15.4 15.4 0 0 1 8 7.1l.4 1.2 1.2 2.5c.4.9.7 1.7 1.3 2.4.2.3 1.3.5 1.7.7.4.2 1 .3 1.2.5l1.8 1.2c.3.2 1.1.6 1.2 1zM5.8 5a2.8 2.7 0 0 0-.7 0l.6.7.4.9c.3-.2.4-.5.4-1l-.2-.3-.5-.4z" fill="#00678c" fill-rule="evenodd"/></svg>