<svg xmlns="http://www.w3.org/2000/svg" preserveAspectRatio="xMidYMid" version="1.1" viewBox="0 0 256 256"><path d="M255 144A128 128 0 1 0 1 112a128 128 0 0 0 254 32Z" fill="#FF6C37"/><path d="m174 82-54 54-15-15c53-53 58-49 69-39Z" fill="#FFF"/><path d="M120 137h-1l-15-15v-2c54-54 60-49 71-39v2l-54 54h-1Zm-13-16 13 13 52-52c-9-8-16-11-65 39Z" fill="#FF6C37"/><path d="m136 152-15-15 54-54c14 15-7 38-39 69Z" fill="#FFF"/><path d="M136 153h-1l-15-15v-2l54-54h2c3 3 5 7 5 12 0 14-16 32-44 59h-1Zm-13-16 13 13c21-21 42-42 42-56 0-3-1-7-3-9l-52 52Z" fill="#FF6C37"/><path d="m105 121 11 11v1l-23 5-2-2v-1l13-14h1Z" fill="#FFF"/><path d="M93 139c-2 0-3-1-3-3l1-3 13-13h2l11 11v3h-1l-22 5h-1Zm12-16-13 12v1l1 1 21-5-9-9Z" fill="#FF6C37"/><path d="M203 52c-8-8-22-7-30 1s-7 21 1 29c7 7 17 8 25 3l-14-15 18-18Z" fill="#FFF"/><path d="M188 89a22 22 0 1 1 16-38v2l-18 17 14 14v2l-12 3Zm0-41c-10 0-19 9-19 19a19 19 0 0 0 28 18l-13-14-1-1h1l17-18c-4-3-8-4-13-4Z" fill="#FF6C37"/><path d="M203 53v-1l-18 18 14 15 4-3c8-8 8-21 0-29Z" fill="#FFF"/><path d="M199 86h-1l-14-15-1-1h1l18-19h2v1a22 22 0 0 1-4 34h-1Zm-13-16 13 13 3-2c7-7 8-19 1-27l-17 16Z" fill="#FF6C37"/><path d="M176 84c-3-3-8-3-11 0l-48 49 8 8 51-45c3-3 4-8 1-11l-1-1Z" fill="#FFF"/><path d="M125 142h-1l-8-8v-2l48-48c4-4 10-4 13 0 4 3 4 9 0 13l-51 45h-1Zm-6-9 6 6 50-44c3-2 3-7 1-9-2-3-7-3-9-1h-1l-47 48Z" fill="#FF6C37"/><path d="m80 188-1 1 3 9-2 3h-3l-14-14 46-46h16l11 11c-3 2-18 17-56 36Z" fill="#FFF"/><path d="m79 203-3-2-14-13v-2l46-46 1-1 16 1h1l11 11v2h-1c-14 12-32 24-55 36l2 9c0 1 0 3-2 4l-2 1Zm-14-16 13 13h2v-2l-2-9 1-3c23-11 41-23 55-34l-10-10h-14l-45 45Z" fill="#FF6C37"/><path d="m52 198 11-11 16 16-26-2c-1 0-2-1-1-2v-1Z" fill="#FFF"/><path d="m79 204-26-2c-2 0-3-1-3-3l1-2 11-11h2l16 16 1 1-2 1Zm-16-16-10 11v1h1l22 1-13-13Zm41-41-1-2 1-1 12-12h2l8 8v1l-1 1-20 5h-1Zm13-12-9 8 14-3-5-5Z" fill="#FF6C37"/><path d="m125 141-14 3a2 2 0 0 1-2-3l8-8 8 8Z" fill="#FFF"/><path d="M110 145c-1 0-3-1-3-3l1-2 8-8h2l8 8v1l-1 1-14 3h-1Zm7-10-7 7 1 1 11-3-5-5Zm86-70-2-1-1 2h1l-1 5v2h2c2-2 3-6 1-8Z" fill="#FF6C37"/></svg>