<svg xmlns="http://www.w3.org/2000/svg" viewBox="0 0 48 48"><path d="M24 5c-1.5 0-2.6.1-3.9.4-3.8.6-4.5 2-4.5 4.6v4h9v2H10.9c-2.7 0-5 1.2-5.7 4.2-.8 3.4-.9 5.6 0 9.1.7 2.7 2 4.7 4.7 4.7h3.7v-5.1c0-3 2.6-5.9 5.7-5.9h7.3c2.5 0 5-1.9 5-4.4V10c0-2.4-1.8-4.2-4.3-4.6.1 0-1.7-.4-3.3-.4zm-5 4c.9 0 1.6.7 1.6 1.5A1.5 1.5 0 1 1 19 9z" fill="#0277BD"/><path d="M23 43c1.6 0 2.7-.1 4-.4 3.9-.6 4.6-2 4.6-4.6v-4h-9v-2h13.7c2.6 0 4.9-1.2 5.6-4.2.9-3.4.9-5.6 0-9.1-.6-2.7-2-4.7-4.7-4.7h-3.6v5.1a6 6 0 0 1-5.8 5.9h-7.2c-2.6 0-5 1.9-5 4.4V38c0 2.4 1.7 4.2 4.2 4.6 0 0 1.7.4 3.3.4zm5-4c-.8 0-1.4-.7-1.4-1.5A1.5 1.5 0 1 1 28 39z" fill="#FFC107"/></svg>