<svg xmlns="http://www.w3.org/2000/svg" viewBox="0 0 172 60"><defs><linearGradient id="b" x1="34.2" x2="26.6" y1="44.9" y2="34" gradientUnits="userSpaceOnUse"><stop offset="0" stop-color="#ffd43b"/><stop offset="1" stop-color="#ffe873"/></linearGradient><linearGradient id="a" x1="10" x2="31.2" y1="11.1" y2="29.5" gradientUnits="userSpaceOnUse"><stop offset="0" stop-color="#5a9fd4"/><stop offset="1" stop-color="#306998"/></linearGradient></defs><path d="M72 30.3c0-5-1.5-7.6-4.3-7.8a8.1 8.1 0 0 0-3.4.6c-.8.3-1.4.6-1.7 1v12a8.5 8.5 0 0 0 4.9 1.6c3-.2 4.5-2.7 4.5-7.4zm3.5.2c0 2.6-.6 4.7-1.8 6.4a6.7 6.7 0 0 1-5.6 3 10 10 0 0 1-5.5-1.7V49l-3.1-1V23.7a7 7 0 0 1 2-1.6c1.8-1 4-1.6 6.6-1.6 2.5 0 4.3 1 5.6 3 1.2 1.8 1.8 4.1 1.8 7zm18.9 7.2c0 3.4-.4 5.8-1 7.1s-2 2.4-4 3.2c-1.6.6-3.3 1-5.1 1l-.5-2c1.9-.2 3.2-.4 4-.7a5.2 5.2 0 0 0 3-2.3c.5-.9.7-2.5.7-4.9v-.8a15.8 15.8 0 0 1-6.6 1.5 6 6 0 0 1-4-1.5c-1.4-1-2-2.3-2-4V21.6l3-1v12.9c0 1.4.5 2.4 1.4 3.2s2 1.1 3.5 1 3-.5 4.5-1.6V21h3.1v16.7zm12 2h-1c-1.7 0-3-.4-4-1.2s-1.5-2-1.5-3.5V23h-2.1v-2h2v-5.1l3.2-1.1V21h3.4v2H103v12c0 1.2.3 2 .9 2.5.5.4 1.4.6 2.5.7v1.6zm18.7-.3h-3V27.5a5 5 0 0 0-1-3 3 3 0 0 0-2.6-1.6c-1.5 0-3.2.8-5.4 2.3v14.2h-3V11l3-1v13c2-1.5 4.2-2.2 6.5-2.2 1.6 0 3 .6 4 1.7s1.5 2.4 1.5 4v13zm16.4-9.6c0-2-.4-3.5-1.1-4.8a4.6 4.6 0 0 0-4-2.4c-3.4.2-5.1 2.6-5.1 7.2 0 2.2.3 4 1 5.4 1 1.8 2.3 2.7 4.1 2.7 3.4 0 5.1-2.7 5.1-8zm3.4 0c0 2.8-.7 5.1-2.1 7-1.6 2-3.7 3-6.5 3-2.7 0-4.8-1-6.3-3-1.4-1.9-2-4.2-2-7 0-2.5.7-4.7 2.2-6.5 1.6-1.9 3.6-2.8 6.2-2.8s4.6 1 6.2 2.8a10 10 0 0 1 2.3 6.5zm17.7 9.6h-3.1V27c0-1.4-.4-2.5-1.3-3.3s-2-1.1-3.3-1.1c-1.5 0-2.8.5-4.2 1.4v15.5h-3V23.6a15 15 0 0 1 4.8-2.6 15 15 0 0 1 3.8-.5c.7 0 1.4 0 2 .2a6 6 0 0 1 3 1.5c.8.9 1.3 2 1.3 3v14.2z" fill="#646464"/><path d="M29 11c-1.6 0-3 .2-4.4.5-4 .7-4.7 2.1-4.7 4.8v3.5h9.3V21H16.5a5.7 5.7 0 0 0-5.8 4.7c-.9 3.6-1 5.8 0 9.5.6 2.7 2.2 4.7 4.9 4.7h3.2v-4.3c0-3 2.6-5.7 5.8-5.7h9.3c2.5 0 4.6-2.2 4.6-4.8v-8.8c0-2.5-2.1-4.4-4.6-4.8a27 27 0 0 0-4.9-.4zm-5 3c1 0 1.7.7 1.7 1.7a1.7 1.7 0 1 1-3.4 0c0-1 .7-1.8 1.7-1.8z" fill="url(#a)"/><path d="M39.7 21v4.1a6 6 0 0 1-5.8 6h-9.3a4.7 4.7 0 0 0-4.7 4.6v8.9c0 2.5 2.2 4 4.7 4.7 3 .9 5.7 1 9.3 0 2.3-.7 4.6-2 4.6-4.7V41h-9.3v-1h14c2.6 0 3.6-2 4.6-4.7 1-3 1-5.8 0-9.5C47 23 45.8 21 43 21h-3.4zm-5.3 22.4c1 0 1.8.8 1.8 1.8s-.8 1.7-1.8 1.7-1.7-.8-1.7-1.7.8-1.8 1.7-1.8z" fill="url(#b)"/></svg>