<svg xmlns="http://www.w3.org/2000/svg" viewBox="0 0 48 48"><path d="M6.6 6.4H48V35l-6.7 6.6H0V13l6.6-6.6z" fill="#41cd52"/><path d="M12.7 13.8a10 10 0 0 1 5.4-1.3 8 8 0 0 1 5 1.4c1.1.7 1.8 1.9 2.3 3 .7 2 1 4.1 1 6.2a19 19 0 0 1-.8 6.2 7 7 0 0 1-2.6 3.4l2.6 4-3.2 1.5-2.7-4.4c-1.2.2-2.4.2-3.7 0-1.4-.1-3-.6-4-1.6a6.6 6.6 0 0 1-1.8-2.8c-.6-1.8-.8-3.8-.8-5.7 0-2 0-4.1.7-6a7 7 0 0 1 2.6-4zm17.9 0h3.3V18H38v3h-4.3v7.2c0 .7 0 1.3.3 2 .2.4.8.5 1.2.6l2.6-.1.2 2.6c-1.7.3-3.5.6-5.3 0-.7-.1-1.4-.6-1.6-1.3-.6-1.2-.6-2.6-.6-3.9v-7h-2.4V18h2.3v-4.4z" fill="#fff"/><path d="M16.7 15.5a7 7 0 0 1 3.2.3 3.5 3.5 0 0 1 1.9 1.8c.5 1.2.7 2.5.9 3.9a26 26 0 0 1-.2 5.3 6 6 0 0 1-1.1 3c-.7.8-1.8 1.1-3 1.2-1 0-2.2 0-3.2-.5-.6-.3-1.1-.8-1.4-1.4-.4-.8-.6-1.6-.7-2.3-.4-2.5-.5-5.1 0-7.6.3-1 .6-2 1.3-2.7a4 4 0 0 1 2.3-1z" fill="#41cd52"/></svg>