<svg xmlns="http://www.w3.org/2000/svg" preserveAspectRatio="xMidYMid" viewBox="0 0 32 32"><path d="M32 16a16 16 0 1 1-32 0 16 16 0 0 1 32 0z" fill="#dd4814"/><path d="M5.12 13.86a2.14 2.14 0 1 0 0 4.28 2.14 2.14 0 0 0 0-4.28zm15.25 9.71a2.14 2.14 0 1 0 2.14 3.7 2.14 2.14 0 0 0-2.14-3.7zM9.76 16a6.23 6.23 0 0 1 2.65-5.1l-1.56-2.62a9.3 9.3 0 0 0-3.84 5.4 2.99 2.99 0 0 1 0 4.65 9.29 9.29 0 0 0 3.84 5.4l1.56-2.63A6.23 6.23 0 0 1 9.76 16zM16 9.76a6.24 6.24 0 0 1 6.21 5.69l3.05-.05a9.25 9.25 0 0 0-2.76-6.02 3 3 0 0 1-2.56-.2 2.99 2.99 0 0 1-1.46-2.12 9.3 9.3 0 0 0-6.6.62l1.5 2.66A6.2 6.2 0 0 1 16 9.76zm0 12.48a6.1 6.1 0 0 1-2.63-.58l-1.48 2.66c1.24.61 2.63.96 4.11.96a9.28 9.28 0 0 0 2.48-.34 3 3 0 0 1 4.02-2.32 9.25 9.25 0 0 0 2.76-6.02l-3.05-.05A6.24 6.24 0 0 1 16 22.24zm4.37-13.8a2.14 2.14 0 1 0-.78-2.93 2.13 2.13 0 0 0 .78 2.92z" fill="#fff"/></svg>